<svg width="318" height="319" viewBox="0 0 318 319" fill="none" xmlns="http://www.w3.org/2000/svg">
<g clip-path="url(#clip0_101_213)">
<path fill-rule="evenodd" clip-rule="evenodd" d="M250.781 207.56C238.502 212.485 225.096 215.194 211.057 215.194C152.09 215.194 104.287 167.391 104.287 108.424C104.287 88.5387 109.723 69.9231 119.191 53.9822C79.8946 69.7424 52.1438 108.19 52.1438 153.118C52.1438 212.086 99.9464 259.889 158.914 259.889C197.996 259.889 232.174 238.89 250.781 207.56Z" fill="#BAC7CB"/>
<g filter="url(#filter0_b_101_213)">
<path fill-rule="evenodd" clip-rule="evenodd" d="M250.781 207.56C238.502 212.485 225.096 215.194 211.057 215.194C152.09 215.194 104.287 167.391 104.287 108.424C104.287 88.5387 109.723 69.9231 119.191 53.9822C79.8946 69.7424 52.1438 108.19 52.1438 153.118C52.1438 212.086 99.9464 259.889 158.914 259.889C197.996 259.889 232.174 238.89 250.781 207.56Z" fill="url(#paint0_linear_101_213)"/>
</g>
<g filter="url(#filter1_b_101_213)">
<path fill-rule="evenodd" clip-rule="evenodd" d="M247.8 210.025C236.329 214.174 223.956 216.436 211.057 216.436C151.404 216.436 103.046 168.077 103.046 108.424C103.046 89.626 107.849 71.9465 116.295 56.5492C79.2403 72.9267 53.3853 110.005 53.3853 153.118C53.3853 211.4 100.632 258.647 158.914 258.647C196.237 258.647 229.036 239.272 247.8 210.025ZM248.883 208.3C237.126 212.755 224.376 215.194 211.057 215.194C152.09 215.194 104.287 167.391 104.287 108.424C104.287 89.2666 109.333 71.2878 118.167 55.7436C118.503 55.1529 118.844 54.5658 119.191 53.9822C118.557 54.2365 117.926 54.4967 117.298 54.7628C79.0063 70.9848 52.1438 108.915 52.1438 153.118C52.1438 212.086 99.9464 259.889 158.914 259.889C197.264 259.889 230.891 239.67 249.719 209.31C250.078 208.731 250.432 208.147 250.781 207.56C250.151 207.813 249.519 208.059 248.883 208.3Z" fill="url(#paint1_linear_101_213)"/>
</g>
<g opacity="0.5" filter="url(#filter2_b_101_213)">
<path d="M0 0H318V318H0V0Z" fill="url(#paint2_linear_101_213)"/>
</g>
</g>
<defs>
<filter id="filter0_b_101_213" x="-9.93186" y="-8.09342" width="322.788" height="330.058" filterUnits="userSpaceOnUse" color-interpolation-filters="sRGB">
<feFlood flood-opacity="0" result="BackgroundImageFix"/>
<feGaussianBlur in="BackgroundImageFix" stdDeviation="31.0378"/>
<feComposite in2="SourceAlpha" operator="in" result="effect1_backgroundBlur_101_213"/>
<feBlend mode="normal" in="SourceGraphic" in2="effect1_backgroundBlur_101_213" result="shape"/>
</filter>
<filter id="filter1_b_101_213" x="-9.93186" y="-8.09342" width="322.788" height="330.058" filterUnits="userSpaceOnUse" color-interpolation-filters="sRGB">
<feFlood flood-opacity="0" result="BackgroundImageFix"/>
<feGaussianBlur in="BackgroundImageFix" stdDeviation="31.0378"/>
<feComposite in2="SourceAlpha" operator="in" result="effect1_backgroundBlur_101_213"/>
<feBlend mode="normal" in="SourceGraphic" in2="effect1_backgroundBlur_101_213" result="shape"/>
</filter>
<filter id="filter2_b_101_213" x="-41" y="-41" width="400" height="400" filterUnits="userSpaceOnUse" color-interpolation-filters="sRGB">
<feFlood flood-opacity="0" result="BackgroundImageFix"/>
<feGaussianBlur in="BackgroundImageFix" stdDeviation="20.5"/>
<feComposite in2="SourceAlpha" operator="in" result="effect1_backgroundBlur_101_213"/>
<feBlend mode="normal" in="SourceGraphic" in2="effect1_backgroundBlur_101_213" result="shape"/>
</filter>
<linearGradient id="paint0_linear_101_213" x1="85.9636" y1="83.7635" x2="277.783" y2="167.446" gradientUnits="userSpaceOnUse">
<stop stop-color="white"/>
<stop offset="1" stop-color="white" stop-opacity="0"/>
</linearGradient>
<linearGradient id="paint1_linear_101_213" x1="35.7916" y1="102.619" x2="132.943" y2="145.423" gradientUnits="userSpaceOnUse">
<stop stop-color="white"/>
<stop offset="1" stop-color="white" stop-opacity="0"/>
</linearGradient>
<linearGradient id="paint2_linear_101_213" x1="159" y1="5.7012" x2="159" y2="324.335" gradientUnits="userSpaceOnUse">
<stop stop-color="#607F89"/>
<stop offset="1" stop-color="#424F5B"/>
</linearGradient>
<clipPath id="clip0_101_213">
<rect y="0.482056" width="317.827" height="317.827" rx="158.914" fill="white"/>
</clipPath>
</defs>
</svg>
