<svg width="319" height="319" viewBox="0 0 319 319" fill="none" xmlns="http://www.w3.org/2000/svg">
<path d="M278.393 205.447C278.393 227.42 260.548 245.233 238.527 245.233H94.2705C64.9978 245.233 41.2639 221.55 41.2639 192.325C41.2639 163.109 64.9978 139.418 94.2705 139.418C96.8958 139.418 99.4763 139.619 102.006 139.985C113.977 116.258 138.595 99.9759 167.034 99.9759C201.445 99.9759 230.273 123.823 237.847 155.862C238.602 159.06 239.148 162.337 239.462 165.676V165.684C261.04 166.176 278.393 183.788 278.393 205.447Z" fill="#BAC7CB" fill-opacity="0.4"/>
<path fill-rule="evenodd" clip-rule="evenodd" d="M290.808 119.779C283.517 122.703 275.557 124.312 267.222 124.312C232.209 124.312 203.825 95.928 203.825 60.9151C203.825 49.1077 207.053 38.0542 212.675 28.5889C189.342 37.9466 172.864 60.7754 172.864 87.4528C172.864 122.466 201.248 150.849 236.261 150.849C259.466 150.849 279.76 138.381 290.808 119.779Z" fill="#BAC7CB"/>
<g filter="url(#filter0_b_101_58)">
<path fill-rule="evenodd" clip-rule="evenodd" d="M290.808 119.779C283.517 122.703 275.557 124.312 267.222 124.312C232.209 124.312 203.825 95.928 203.825 60.9151C203.825 49.1077 207.053 38.0542 212.675 28.5889C189.342 37.9466 172.864 60.7754 172.864 87.4528C172.864 122.466 201.248 150.849 236.261 150.849C259.466 150.849 279.76 138.381 290.808 119.779Z" fill="url(#paint0_linear_101_58)"/>
</g>
<g filter="url(#filter1_b_101_58)">
<path fill-rule="evenodd" clip-rule="evenodd" d="M287.798 122.209C281.333 124.378 274.414 125.553 267.222 125.553C231.523 125.553 202.584 96.6137 202.584 60.9151C202.584 50.1997 205.192 40.0905 209.809 31.1907C188.708 41.1289 174.106 62.5869 174.106 87.4528C174.106 121.78 201.933 149.608 236.261 149.608C257.712 149.608 276.626 138.742 287.798 122.209ZM288.909 120.505C282.143 122.968 274.839 124.312 267.222 124.312C232.209 124.312 203.825 95.928 203.825 60.9151C203.825 49.8342 206.668 39.4172 211.665 30.3539C211.992 29.7596 212.329 29.1713 212.675 28.5889C212.039 28.8438 211.409 29.1087 210.784 29.3834C188.456 39.1932 172.864 61.5021 172.864 87.4528C172.864 122.466 201.248 150.849 236.261 150.849C258.732 150.849 278.473 139.157 289.732 121.525C290.1 120.949 290.458 120.367 290.808 119.779C290.18 120.031 289.547 120.273 288.909 120.505Z" fill="url(#paint1_linear_101_58)"/>
</g>
<g filter="url(#filter2_b_101_58)">
<path d="M278.393 205.447C278.393 227.42 260.548 245.233 238.527 245.233H94.2705C64.9978 245.233 41.2639 221.55 41.2639 192.325C41.2639 163.109 64.9978 139.418 94.2705 139.418C96.8958 139.418 99.4763 139.619 102.006 139.985C113.977 116.258 138.595 99.9759 167.034 99.9759C201.445 99.9759 230.273 123.823 237.847 155.862C238.602 159.06 239.148 162.337 239.462 165.676V165.684C261.04 166.176 278.393 183.788 278.393 205.447Z" fill="url(#paint2_linear_101_58)"/>
</g>
<g filter="url(#filter3_b_101_58)">
<path fill-rule="evenodd" clip-rule="evenodd" d="M102.713 141.341L101.829 141.214C99.3533 140.855 96.8323 140.659 94.2705 140.659C65.6813 140.659 42.5054 163.796 42.5054 192.325C42.5054 220.863 65.6812 243.991 94.2705 243.991H238.527C259.864 243.991 277.151 226.732 277.151 205.447C277.151 184.466 260.342 167.402 239.433 166.926L238.22 166.898V165.734C237.911 162.474 237.377 159.273 236.638 156.147C229.195 124.658 200.858 101.217 167.034 101.217C139.081 101.217 114.882 117.22 103.115 140.544L102.713 141.341ZM239.462 165.676V165.684C261.04 166.176 278.393 183.788 278.393 205.447C278.393 227.42 260.548 245.233 238.527 245.233H94.2705C64.9978 245.233 41.2639 221.55 41.2639 192.325C41.2639 163.109 64.9978 139.418 94.2705 139.418C96.8958 139.418 99.4763 139.619 102.006 139.985C113.977 116.258 138.595 99.9759 167.034 99.9759C201.445 99.9759 230.273 123.823 237.847 155.862C238.602 159.06 239.148 162.337 239.462 165.676Z" fill="url(#paint3_linear_101_58)"/>
</g>
<defs>
<filter id="filter0_b_101_58" x="110.789" y="-33.4868" width="242.095" height="246.412" filterUnits="userSpaceOnUse" color-interpolation-filters="sRGB">
<feFlood flood-opacity="0" result="BackgroundImageFix"/>
<feGaussianBlur in="BackgroundImageFix" stdDeviation="31.0378"/>
<feComposite in2="SourceAlpha" operator="in" result="effect1_backgroundBlur_101_58"/>
<feBlend mode="normal" in="SourceGraphic" in2="effect1_backgroundBlur_101_58" result="shape"/>
</filter>
<filter id="filter1_b_101_58" x="110.789" y="-33.4868" width="242.095" height="246.412" filterUnits="userSpaceOnUse" color-interpolation-filters="sRGB">
<feFlood flood-opacity="0" result="BackgroundImageFix"/>
<feGaussianBlur in="BackgroundImageFix" stdDeviation="31.0378"/>
<feComposite in2="SourceAlpha" operator="in" result="effect1_backgroundBlur_101_58"/>
<feBlend mode="normal" in="SourceGraphic" in2="effect1_backgroundBlur_101_58" result="shape"/>
</filter>
<filter id="filter2_b_101_58" x="10.2261" y="68.938" width="299.205" height="207.333" filterUnits="userSpaceOnUse" color-interpolation-filters="sRGB">
<feFlood flood-opacity="0" result="BackgroundImageFix"/>
<feGaussianBlur in="BackgroundImageFix" stdDeviation="15.5189"/>
<feComposite in2="SourceAlpha" operator="in" result="effect1_backgroundBlur_101_58"/>
<feBlend mode="normal" in="SourceGraphic" in2="effect1_backgroundBlur_101_58" result="shape"/>
</filter>
<filter id="filter3_b_101_58" x="10.2261" y="68.938" width="299.205" height="207.333" filterUnits="userSpaceOnUse" color-interpolation-filters="sRGB">
<feFlood flood-opacity="0" result="BackgroundImageFix"/>
<feGaussianBlur in="BackgroundImageFix" stdDeviation="15.5189"/>
<feComposite in2="SourceAlpha" operator="in" result="effect1_backgroundBlur_101_58"/>
<feBlend mode="normal" in="SourceGraphic" in2="effect1_backgroundBlur_101_58" result="shape"/>
</filter>
<linearGradient id="paint0_linear_101_58" x1="192.945" y1="46.272" x2="306.841" y2="95.9593" gradientUnits="userSpaceOnUse">
<stop stop-color="white"/>
<stop offset="1" stop-color="white" stop-opacity="0"/>
</linearGradient>
<linearGradient id="paint1_linear_101_58" x1="163.155" y1="57.4678" x2="220.84" y2="82.8833" gradientUnits="userSpaceOnUse">
<stop stop-color="white"/>
<stop offset="1" stop-color="white" stop-opacity="0"/>
</linearGradient>
<linearGradient id="paint2_linear_101_58" x1="78.8197" y1="125.427" x2="247.045" y2="245.233" gradientUnits="userSpaceOnUse">
<stop offset="0.416176" stop-color="white" stop-opacity="0.7"/>
<stop offset="1" stop-color="white" stop-opacity="0"/>
</linearGradient>
<linearGradient id="paint3_linear_101_58" x1="23.1054" y1="138.253" x2="108.008" y2="199.32" gradientUnits="userSpaceOnUse">
<stop stop-color="white"/>
<stop offset="1" stop-color="white" stop-opacity="0"/>
</linearGradient>
</defs>
</svg>
