<svg width="319" height="319" viewBox="0 0 319 319" fill="none" xmlns="http://www.w3.org/2000/svg">
<path fill-rule="evenodd" clip-rule="evenodd" d="M295.174 116C287.884 118.924 279.924 120.533 271.588 120.533C236.575 120.533 208.192 92.1494 208.192 57.1365C208.192 45.329 211.42 34.2755 217.041 24.8102C193.708 34.1679 177.231 56.9967 177.231 83.6741C177.231 118.687 205.614 147.071 240.627 147.071C263.833 147.071 284.126 134.603 295.174 116Z" fill="#BAC7CB"/>
<g filter="url(#filter0_b_101_494)">
<path fill-rule="evenodd" clip-rule="evenodd" d="M295.174 116C287.884 118.924 279.924 120.533 271.588 120.533C236.575 120.533 208.192 92.1494 208.192 57.1365C208.192 45.329 211.42 34.2755 217.041 24.8102C193.708 34.1679 177.231 56.9967 177.231 83.6741C177.231 118.687 205.614 147.071 240.627 147.071C263.833 147.071 284.126 134.603 295.174 116Z" fill="url(#paint0_linear_101_494)"/>
</g>
<g filter="url(#filter1_b_101_494)">
<path fill-rule="evenodd" clip-rule="evenodd" d="M292.164 118.43C285.699 120.599 278.78 121.774 271.588 121.774C235.89 121.774 206.95 92.835 206.95 57.1365C206.95 46.421 209.559 36.3118 214.175 27.412C193.074 37.3502 178.472 58.8082 178.472 83.6741C178.472 118.001 206.3 145.829 240.627 145.829C262.078 145.829 280.992 134.963 292.164 118.43ZM293.275 116.727C286.509 119.189 279.206 120.533 271.588 120.533C236.575 120.533 208.192 92.1494 208.192 57.1365C208.192 46.0555 211.035 35.6385 216.031 26.5752C216.358 25.981 216.695 25.3926 217.041 24.8102C216.406 25.0651 215.775 25.33 215.15 25.6047C192.823 35.4145 177.231 57.7234 177.231 83.6741C177.231 118.687 205.614 147.071 240.627 147.071C263.099 147.071 282.84 135.379 294.098 117.747C294.466 117.171 294.825 116.589 295.174 116C294.546 116.252 293.913 116.494 293.275 116.727Z" fill="url(#paint1_linear_101_494)"/>
</g>
<path d="M278.414 187.618C278.414 209.591 260.569 227.404 238.548 227.404H94.2915C65.0188 227.404 41.2849 203.721 41.2849 174.496C41.2849 145.279 65.0188 121.588 94.2915 121.588C96.9168 121.588 99.4973 121.789 102.027 122.155C113.998 98.4283 138.616 82.1465 167.055 82.1465C201.466 82.1465 230.294 105.994 237.868 138.032C238.623 141.231 239.169 144.508 239.482 147.847V147.855C261.061 148.347 278.414 165.958 278.414 187.618Z" fill="#BAC7CB" fill-opacity="0.4"/>
<g filter="url(#filter2_b_101_494)">
<path d="M278.414 187.618C278.414 209.591 260.569 227.404 238.548 227.404H94.2915C65.0188 227.404 41.2849 203.721 41.2849 174.496C41.2849 145.279 65.0188 121.588 94.2915 121.588C96.9168 121.588 99.4973 121.789 102.027 122.155C113.998 98.4283 138.616 82.1465 167.055 82.1465C201.466 82.1465 230.294 105.994 237.868 138.032C238.623 141.231 239.169 144.508 239.482 147.847V147.855C261.061 148.347 278.414 165.958 278.414 187.618Z" fill="url(#paint2_linear_101_494)"/>
</g>
<g filter="url(#filter3_b_101_494)">
<path fill-rule="evenodd" clip-rule="evenodd" d="M102.734 123.512L101.85 123.384C99.3743 123.026 96.8533 122.83 94.2915 122.83C65.7023 122.83 42.5264 145.967 42.5264 174.496C42.5264 203.033 65.7022 226.162 94.2915 226.162H238.548C259.885 226.162 277.172 208.903 277.172 187.618C277.172 166.637 260.363 149.573 239.454 149.096L238.241 149.068V147.905C237.932 144.645 237.398 141.444 236.659 138.318C229.216 106.828 200.879 83.388 167.055 83.388C139.102 83.388 114.903 99.3903 103.136 122.715L102.734 123.512ZM239.482 147.847V147.855C261.061 148.347 278.414 165.958 278.414 187.618C278.414 209.591 260.569 227.404 238.548 227.404H94.2915C65.0188 227.404 41.2849 203.721 41.2849 174.496C41.2849 145.279 65.0188 121.588 94.2915 121.588C96.9168 121.588 99.4973 121.789 102.027 122.155C113.998 98.4283 138.616 82.1465 167.055 82.1465C201.466 82.1465 230.294 105.994 237.868 138.032C238.623 141.231 239.169 144.508 239.482 147.847Z" fill="url(#paint3_linear_101_494)"/>
</g>
<path d="M215.585 223.611C215.585 239.761 202.468 252.855 186.281 252.855H80.247C58.7303 252.855 41.2849 235.447 41.2849 213.965C41.2849 192.49 58.7303 175.076 80.247 175.076C82.1767 175.076 84.0735 175.224 85.9333 175.493C94.7321 158.052 112.828 146.084 133.731 146.084C159.025 146.084 180.215 163.613 185.782 187.163C186.337 189.514 186.738 191.923 186.969 194.377V194.383C202.83 194.744 215.585 207.69 215.585 223.611Z" fill="#BAC7CB"/>
<g filter="url(#filter4_b_101_494)">
<path d="M215.585 223.611C215.585 239.761 202.468 252.855 186.281 252.855H80.247C58.7303 252.855 41.2849 235.447 41.2849 213.965C41.2849 192.49 58.7303 175.076 80.247 175.076C82.1767 175.076 84.0735 175.224 85.9333 175.493C94.7321 158.052 112.828 146.084 133.731 146.084C159.025 146.084 180.215 163.613 185.782 187.163C186.337 189.514 186.738 191.923 186.969 194.377V194.383C202.83 194.744 215.585 207.69 215.585 223.611Z" fill="url(#paint4_linear_101_494)"/>
</g>
<g filter="url(#filter5_b_101_494)">
<path fill-rule="evenodd" clip-rule="evenodd" d="M86.6394 176.849L85.7555 176.721C83.9505 176.46 82.1132 176.317 80.247 176.317C59.4138 176.317 42.5264 193.177 42.5264 213.965C42.5264 234.759 59.4137 251.613 80.247 251.613H186.281C201.785 251.613 214.343 239.073 214.343 223.611C214.343 208.368 202.131 195.97 186.94 195.624L185.727 195.596V194.435C185.501 192.06 185.112 189.727 184.573 187.448C179.136 164.448 158.438 147.326 133.731 147.326C113.313 147.326 95.6373 159.014 87.0417 176.052L86.6394 176.849ZM186.969 194.377V194.383C202.83 194.744 215.585 207.69 215.585 223.611C215.585 239.761 202.468 252.855 186.281 252.855H80.247C58.7303 252.855 41.2849 235.447 41.2849 213.965C41.2849 192.49 58.7303 175.076 80.247 175.076C82.1767 175.076 84.0735 175.224 85.9333 175.493C94.7321 158.052 112.828 146.084 133.731 146.084C159.025 146.084 180.215 163.613 185.782 187.163C186.337 189.514 186.738 191.923 186.969 194.377Z" fill="url(#paint5_linear_101_494)"/>
</g>
<defs>
<filter id="filter0_b_101_494" x="115.155" y="-37.2655" width="242.095" height="246.412" filterUnits="userSpaceOnUse" color-interpolation-filters="sRGB">
<feFlood flood-opacity="0" result="BackgroundImageFix"/>
<feGaussianBlur in="BackgroundImageFix" stdDeviation="31.0378"/>
<feComposite in2="SourceAlpha" operator="in" result="effect1_backgroundBlur_101_494"/>
<feBlend mode="normal" in="SourceGraphic" in2="effect1_backgroundBlur_101_494" result="shape"/>
</filter>
<filter id="filter1_b_101_494" x="115.155" y="-37.2655" width="242.095" height="246.412" filterUnits="userSpaceOnUse" color-interpolation-filters="sRGB">
<feFlood flood-opacity="0" result="BackgroundImageFix"/>
<feGaussianBlur in="BackgroundImageFix" stdDeviation="31.0378"/>
<feComposite in2="SourceAlpha" operator="in" result="effect1_backgroundBlur_101_494"/>
<feBlend mode="normal" in="SourceGraphic" in2="effect1_backgroundBlur_101_494" result="shape"/>
</filter>
<filter id="filter2_b_101_494" x="10.2471" y="51.1087" width="299.205" height="207.333" filterUnits="userSpaceOnUse" color-interpolation-filters="sRGB">
<feFlood flood-opacity="0" result="BackgroundImageFix"/>
<feGaussianBlur in="BackgroundImageFix" stdDeviation="15.5189"/>
<feComposite in2="SourceAlpha" operator="in" result="effect1_backgroundBlur_101_494"/>
<feBlend mode="normal" in="SourceGraphic" in2="effect1_backgroundBlur_101_494" result="shape"/>
</filter>
<filter id="filter3_b_101_494" x="10.2471" y="51.1087" width="299.205" height="207.333" filterUnits="userSpaceOnUse" color-interpolation-filters="sRGB">
<feFlood flood-opacity="0" result="BackgroundImageFix"/>
<feGaussianBlur in="BackgroundImageFix" stdDeviation="15.5189"/>
<feComposite in2="SourceAlpha" operator="in" result="effect1_backgroundBlur_101_494"/>
<feBlend mode="normal" in="SourceGraphic" in2="effect1_backgroundBlur_101_494" result="shape"/>
</filter>
<filter id="filter4_b_101_494" x="10.2471" y="115.047" width="236.376" height="168.846" filterUnits="userSpaceOnUse" color-interpolation-filters="sRGB">
<feFlood flood-opacity="0" result="BackgroundImageFix"/>
<feGaussianBlur in="BackgroundImageFix" stdDeviation="15.5189"/>
<feComposite in2="SourceAlpha" operator="in" result="effect1_backgroundBlur_101_494"/>
<feBlend mode="normal" in="SourceGraphic" in2="effect1_backgroundBlur_101_494" result="shape"/>
</filter>
<filter id="filter5_b_101_494" x="10.2471" y="115.047" width="236.376" height="168.846" filterUnits="userSpaceOnUse" color-interpolation-filters="sRGB">
<feFlood flood-opacity="0" result="BackgroundImageFix"/>
<feGaussianBlur in="BackgroundImageFix" stdDeviation="15.5189"/>
<feComposite in2="SourceAlpha" operator="in" result="effect1_backgroundBlur_101_494"/>
<feBlend mode="normal" in="SourceGraphic" in2="effect1_backgroundBlur_101_494" result="shape"/>
</filter>
<linearGradient id="paint0_linear_101_494" x1="197.312" y1="42.4933" x2="311.207" y2="92.1806" gradientUnits="userSpaceOnUse">
<stop stop-color="white"/>
<stop offset="1" stop-color="white" stop-opacity="0"/>
</linearGradient>
<linearGradient id="paint1_linear_101_494" x1="167.521" y1="53.6891" x2="225.206" y2="79.1046" gradientUnits="userSpaceOnUse">
<stop stop-color="white"/>
<stop offset="1" stop-color="white" stop-opacity="0"/>
</linearGradient>
<linearGradient id="paint2_linear_101_494" x1="78.8407" y1="107.598" x2="247.066" y2="227.404" gradientUnits="userSpaceOnUse">
<stop offset="0.416176" stop-color="white" stop-opacity="0.7"/>
<stop offset="1" stop-color="white" stop-opacity="0"/>
</linearGradient>
<linearGradient id="paint3_linear_101_494" x1="23.1264" y1="120.424" x2="108.029" y2="181.491" gradientUnits="userSpaceOnUse">
<stop stop-color="white"/>
<stop offset="1" stop-color="white" stop-opacity="0"/>
</linearGradient>
<linearGradient id="paint4_linear_101_494" x1="68.89" y1="164.792" x2="192.543" y2="252.855" gradientUnits="userSpaceOnUse">
<stop offset="0.416176" stop-color="white" stop-opacity="0.7"/>
<stop offset="1" stop-color="white" stop-opacity="0"/>
</linearGradient>
<linearGradient id="paint5_linear_101_494" x1="27.9376" y1="174.22" x2="90.3446" y2="219.107" gradientUnits="userSpaceOnUse">
<stop stop-color="white"/>
<stop offset="1" stop-color="white" stop-opacity="0"/>
</linearGradient>
</defs>
</svg>
