<svg width="319" height="319" viewBox="0 0 319 319" fill="none" xmlns="http://www.w3.org/2000/svg">
<path d="M284.664 115.495C284.664 145.321 260.485 169.501 230.659 169.501C200.832 169.501 176.653 145.321 176.653 115.495C176.653 85.6682 200.832 61.489 230.659 61.489C260.485 61.489 284.664 85.6682 284.664 115.495Z" fill="url(#paint0_linear_101_190)"/>
<path d="M278.457 175.03C278.457 197.003 260.612 214.816 238.591 214.816H94.3345C65.0618 214.816 41.3279 191.133 41.3279 161.908C41.3279 132.691 65.0618 109.001 94.3345 109.001C96.9598 109.001 99.5403 109.202 102.07 109.568C114.041 85.8406 138.659 69.5588 167.098 69.5588C201.509 69.5588 230.337 93.4061 237.911 125.445C238.666 128.643 239.212 131.92 239.525 135.259V135.267C261.104 135.759 278.457 153.371 278.457 175.03V175.03Z" fill="#BAC7CB" fill-opacity="0.4"/>
<g filter="url(#filter0_b_101_190)">
<path d="M278.457 175.03C278.457 197.003 260.612 214.816 238.591 214.816H94.3345C65.0618 214.816 41.3279 191.133 41.3279 161.908C41.3279 132.691 65.0618 109.001 94.3345 109.001C96.9598 109.001 99.5403 109.202 102.07 109.568C114.041 85.8406 138.659 69.5588 167.098 69.5588C201.509 69.5588 230.337 93.4061 237.911 125.445C238.666 128.643 239.212 131.92 239.525 135.259V135.267C261.104 135.759 278.457 153.371 278.457 175.03V175.03Z" fill="url(#paint1_linear_101_190)"/>
</g>
<g filter="url(#filter1_b_101_190)">
<path fill-rule="evenodd" clip-rule="evenodd" d="M102.777 110.924L101.893 110.796C99.4172 110.438 96.8962 110.242 94.3345 110.242C65.7453 110.242 42.5694 133.379 42.5694 161.908C42.5694 190.445 65.7451 213.574 94.3345 213.574H238.591C259.928 213.574 277.215 196.315 277.215 175.03C277.215 154.049 260.406 136.985 239.497 136.508L238.284 136.481V135.317C237.975 132.057 237.441 128.856 236.702 125.73C229.258 94.2405 200.922 70.8003 167.098 70.8003C139.145 70.8003 114.946 86.8027 103.179 110.127L102.777 110.924ZM239.525 135.259V135.267C261.104 135.759 278.457 153.371 278.457 175.03C278.457 197.003 260.612 214.816 238.591 214.816H94.3345C65.0618 214.816 41.3279 191.133 41.3279 161.908C41.3279 132.691 65.0618 109.001 94.3345 109.001C96.9598 109.001 99.5403 109.202 102.07 109.568C114.041 85.8406 138.659 69.5588 167.098 69.5588C201.509 69.5588 230.337 93.4061 237.911 125.445C238.666 128.643 239.212 131.92 239.525 135.259Z" fill="url(#paint2_linear_101_190)"/>
</g>
<path d="M215.628 211.023C215.628 227.174 202.511 240.267 186.324 240.267H80.29C58.7733 240.267 41.3279 222.859 41.3279 201.378C41.3279 179.902 58.7733 162.488 80.29 162.488C82.2197 162.488 84.1165 162.636 85.9762 162.905C94.7751 145.465 112.871 133.497 133.774 133.497C159.068 133.497 180.258 151.025 185.825 174.575C186.38 176.926 186.781 179.335 187.012 181.789V181.795C202.873 182.157 215.628 195.102 215.628 211.023V211.023Z" fill="#BAC7CB"/>
<g filter="url(#filter2_b_101_190)">
<path d="M215.628 211.023C215.628 227.174 202.511 240.267 186.324 240.267H80.29C58.7733 240.267 41.3279 222.859 41.3279 201.378C41.3279 179.902 58.7733 162.488 80.29 162.488C82.2197 162.488 84.1165 162.636 85.9762 162.905C94.7751 145.465 112.871 133.497 133.774 133.497C159.068 133.497 180.258 151.025 185.825 174.575C186.38 176.926 186.781 179.335 187.012 181.789V181.795C202.873 182.157 215.628 195.102 215.628 211.023V211.023Z" fill="url(#paint3_linear_101_190)"/>
</g>
<g filter="url(#filter3_b_101_190)">
<path fill-rule="evenodd" clip-rule="evenodd" d="M86.6824 164.262L85.7985 164.134C83.9934 163.873 82.1561 163.73 80.29 163.73C59.4568 163.73 42.5694 180.59 42.5694 201.378C42.5694 222.171 59.4567 239.025 80.29 239.025H186.324C201.827 239.025 214.386 226.486 214.386 211.023C214.386 195.781 202.174 183.383 186.983 183.036L185.77 183.009V181.848C185.544 179.472 185.155 177.139 184.616 174.861C179.179 151.86 158.481 134.738 133.774 134.738C113.356 134.738 95.6803 146.427 87.0847 163.464L86.6824 164.262ZM187.012 181.789V181.795C202.873 182.157 215.628 195.102 215.628 211.023C215.628 227.174 202.511 240.267 186.324 240.267H80.29C58.7733 240.267 41.3279 222.859 41.3279 201.378C41.3279 179.902 58.7733 162.488 80.29 162.488C82.2197 162.488 84.1165 162.636 85.9762 162.905C94.7751 145.465 112.871 133.497 133.774 133.497C159.068 133.497 180.258 151.025 185.825 174.575C186.38 176.926 186.781 179.335 187.012 181.789Z" fill="url(#paint4_linear_101_190)"/>
</g>
<defs>
<filter id="filter0_b_101_190" x="10.2901" y="38.521" width="299.205" height="207.333" filterUnits="userSpaceOnUse" color-interpolation-filters="sRGB">
<feFlood flood-opacity="0" result="BackgroundImageFix"/>
<feGaussianBlur in="BackgroundImageFix" stdDeviation="15.5189"/>
<feComposite in2="SourceAlpha" operator="in" result="effect1_backgroundBlur_101_190"/>
<feBlend mode="normal" in="SourceGraphic" in2="effect1_backgroundBlur_101_190" result="shape"/>
</filter>
<filter id="filter1_b_101_190" x="10.2901" y="38.521" width="299.205" height="207.333" filterUnits="userSpaceOnUse" color-interpolation-filters="sRGB">
<feFlood flood-opacity="0" result="BackgroundImageFix"/>
<feGaussianBlur in="BackgroundImageFix" stdDeviation="15.5189"/>
<feComposite in2="SourceAlpha" operator="in" result="effect1_backgroundBlur_101_190"/>
<feBlend mode="normal" in="SourceGraphic" in2="effect1_backgroundBlur_101_190" result="shape"/>
</filter>
<filter id="filter2_b_101_190" x="10.2901" y="102.459" width="236.376" height="168.846" filterUnits="userSpaceOnUse" color-interpolation-filters="sRGB">
<feFlood flood-opacity="0" result="BackgroundImageFix"/>
<feGaussianBlur in="BackgroundImageFix" stdDeviation="15.5189"/>
<feComposite in2="SourceAlpha" operator="in" result="effect1_backgroundBlur_101_190"/>
<feBlend mode="normal" in="SourceGraphic" in2="effect1_backgroundBlur_101_190" result="shape"/>
</filter>
<filter id="filter3_b_101_190" x="10.2901" y="102.459" width="236.376" height="168.846" filterUnits="userSpaceOnUse" color-interpolation-filters="sRGB">
<feFlood flood-opacity="0" result="BackgroundImageFix"/>
<feGaussianBlur in="BackgroundImageFix" stdDeviation="15.5189"/>
<feComposite in2="SourceAlpha" operator="in" result="effect1_backgroundBlur_101_190"/>
<feBlend mode="normal" in="SourceGraphic" in2="effect1_backgroundBlur_101_190" result="shape"/>
</filter>
<linearGradient id="paint0_linear_101_190" x1="252.414" y1="66.489" x2="206.914" y2="169.489" gradientUnits="userSpaceOnUse">
<stop stop-color="#FFD88B"/>
<stop offset="1" stop-color="#FFA900"/>
</linearGradient>
<linearGradient id="paint1_linear_101_190" x1="78.8836" y1="95.0098" x2="247.109" y2="214.816" gradientUnits="userSpaceOnUse">
<stop offset="0.416176" stop-color="white" stop-opacity="0.7"/>
<stop offset="1" stop-color="white" stop-opacity="0"/>
</linearGradient>
<linearGradient id="paint2_linear_101_190" x1="23.1694" y1="107.836" x2="108.072" y2="168.903" gradientUnits="userSpaceOnUse">
<stop stop-color="white"/>
<stop offset="1" stop-color="white" stop-opacity="0"/>
</linearGradient>
<linearGradient id="paint3_linear_101_190" x1="68.933" y1="152.204" x2="192.586" y2="240.267" gradientUnits="userSpaceOnUse">
<stop offset="0.416176" stop-color="white" stop-opacity="0.7"/>
<stop offset="1" stop-color="white" stop-opacity="0"/>
</linearGradient>
<linearGradient id="paint4_linear_101_190" x1="27.9806" y1="161.632" x2="90.3876" y2="206.519" gradientUnits="userSpaceOnUse">
<stop stop-color="white"/>
<stop offset="1" stop-color="white" stop-opacity="0"/>
</linearGradient>
</defs>
</svg>
